<svg xmlns="http://www.w3.org/2000/svg" viewBox="0 0 301.74 80.45"><defs><style>.cls-1{fill:#231f20;}.cls-2{fill:#ef3d66;}</style></defs><g id="Layer_2" data-name="Layer 2"><g id="Layer_1-2" data-name="Layer 1"><path class="cls-1" d="M0,44a23.16,23.16,0,0,1,1.39-8.35,20.47,20.47,0,0,1,3.78-6.32,22.34,22.34,0,0,1,5.54-4.53,33.5,33.5,0,0,1,6.64-3,39.49,39.49,0,0,1,7.14-1.62,52.19,52.19,0,0,1,7-.5H50.66v1.6a8.15,8.15,0,0,0-2.89.43,4.55,4.55,0,0,0-1.68,1.07,3,3,0,0,0-.78,1.39,5.62,5.62,0,0,0-.19,1.38V74.63A5.28,5.28,0,0,0,45.31,76a3.23,3.23,0,0,0,.78,1.4,4.58,4.58,0,0,0,1.68,1.1,7.66,7.66,0,0,0,2.89.46v1.51h-23V78.94a7.14,7.14,0,0,0,4.18-1,2.82,2.82,0,0,0,1.27-2.34V61.3a18.58,18.58,0,0,1-4.67,3,13.81,13.81,0,0,1-5.75,1.17,33.85,33.85,0,0,1-8.53-1.07,19.33,19.33,0,0,1-7.24-3.56,17.67,17.67,0,0,1-5-6.63A24.53,24.53,0,0,1,0,44ZM23.79,63a8.18,8.18,0,0,0,2.83-.6,12.6,12.6,0,0,0,3.06-1.64,9.74,9.74,0,0,0,2.44-2.52,5.77,5.77,0,0,0,1-3.24V22.29H33a22.06,22.06,0,0,0-12.63,4.2,17.69,17.69,0,0,0-4,4.1,21.28,21.28,0,0,0-2.9,5.95,26.94,26.94,0,0,0-1.1,8.1A30,30,0,0,0,13.06,51a23.16,23.16,0,0,0,2.14,5.93,13.54,13.54,0,0,0,3.57,4.37A7.88,7.88,0,0,0,23.79,63Z"/><path class="cls-1" d="M77,21.22a9.26,9.26,0,0,0-2.79.35,4.35,4.35,0,0,0-1.68.94,3.1,3.1,0,0,0-.84,1.36,5.62,5.62,0,0,0-.22,1.62V49.77a13.21,13.21,0,0,0,1,5.41,9.43,9.43,0,0,0,2.54,3.51,8,8,0,0,0,3.47,1.7,8.19,8.19,0,0,0,3.75,0,11.78,11.78,0,0,0,4.64-2.19,14,14,0,0,0,3.38-3.84,18.14,18.14,0,0,0,2.09-5A22.86,22.86,0,0,0,93,43.53v-18a5.79,5.79,0,0,0-.18-1.36A3.22,3.22,0,0,0,92,22.76a4.75,4.75,0,0,0-1.68-1.09,7.74,7.74,0,0,0-2.9-.45V19.7H111v1.52a9.3,9.3,0,0,0-2.77.35,4.3,4.3,0,0,0-1.7.94,3.1,3.1,0,0,0-.84,1.36,5.61,5.61,0,0,0-.23,1.62V58a5,5,0,0,0,.21,1.36,3.31,3.31,0,0,0,.77,1.37,4.53,4.53,0,0,0,1.67,1.09,7.64,7.64,0,0,0,2.89.45V63.8H93V55.47a21.46,21.46,0,0,1-2,3.12,16.28,16.28,0,0,1-2.83,2.79,18.49,18.49,0,0,1-3.75,2.23A21.31,21.31,0,0,1,73.3,65.28a16.38,16.38,0,0,1-5.06-1.56,13.81,13.81,0,0,1-3.88-2.94,17.23,17.23,0,0,1-2.73-4A19.84,19.84,0,0,1,60,52.19a23.52,23.52,0,0,1-.53-4.92v-22a4.26,4.26,0,0,0-.23-1.31,3.07,3.07,0,0,0-.84-1.29,4.85,4.85,0,0,0-1.7-1,8.05,8.05,0,0,0-2.77-.41V19.7H77Z"/><path class="cls-2" d="M136,61.83a4.71,4.71,0,0,1-1.69-1.09,3.38,3.38,0,0,1-.8-1.37,5.39,5.39,0,0,1-.2-1.36V25.5l-6.09-1.88-5.81,1.82V58a5.73,5.73,0,0,1-.22,1.63,3.13,3.13,0,0,1-.84,1.35,4.24,4.24,0,0,1-1.7.94,9.57,9.57,0,0,1-2.82.35V63.8h23.06V62.28A7.64,7.64,0,0,1,136,61.83Z"/><path class="cls-1" d="M193.73,19.7q-1.11,3.4-2.46,7.14c-.9,2.49-1.85,5-2.83,7.61s-2,5.17-3.08,7.75-2.14,5.1-3.24,7.53-2.18,4.76-3.26,7-2.14,4.24-3.18,6.07l-14.56,1.85a164.59,164.59,0,0,1-8.06-19.44q-2.55-7.44-4.53-15h0c-.27-1-.53-2-.77-3-.17-.67-.34-1.35-.5-2a4.86,4.86,0,0,0-.72-1.36,5,5,0,0,0-1.42-1.25,5.68,5.68,0,0,0-.65-.34L142.8,19.7h20.86v1.6a9.11,9.11,0,0,0-2.15.21,2.31,2.31,0,0,0-1.25.67,2.08,2.08,0,0,0-.47,1.21,5.86,5.86,0,0,0,.18,1.77q2.13,9.15,5.15,18a154.76,154.76,0,0,0,7.12,17.41q2-4,3.83-8.29t3.28-8.82q1.5-4.5,2.67-9.14c.78-3.09,1.43-6.16,1.95-9.19a2.45,2.45,0,0,0-.23-1.89,3.31,3.31,0,0,0-1.31-1.17,6.44,6.44,0,0,0-1.89-.59,18.06,18.06,0,0,0-1.95-.21V19.7Z"/><path class="cls-1" d="M210.35,38.16a17.41,17.41,0,0,0-.08,1.74v1.71a57.27,57.27,0,0,0,.49,7.59,23,23,0,0,0,1.82,6.56,12,12,0,0,0,3.72,4.65,10.31,10.31,0,0,0,6.15,1.87,11.4,11.4,0,0,0,4.33-.78,10.7,10.7,0,0,0,3.34-2.15,13.4,13.4,0,0,0,2.46-3.22,22.11,22.11,0,0,0,1.72-4L244,55.39a21.62,21.62,0,0,1-3.52,3.86,22.23,22.23,0,0,1-4.7,3,26.82,26.82,0,0,1-5.91,2,32.51,32.51,0,0,1-7.15.74,30.63,30.63,0,0,1-8-1,25.36,25.36,0,0,1-6.38-2.65,21.37,21.37,0,0,1-4.88-4A24.21,24.21,0,0,1,200,52.64a22.55,22.55,0,0,1-2-5.37,23.81,23.81,0,0,1-.66-5.5,24.71,24.71,0,0,1,.6-5.31,24,24,0,0,1,1.87-5.35A23.59,23.59,0,0,1,203,26.16a21,21,0,0,1,4.67-4.08A24,24,0,0,1,214,19.29a28.48,28.48,0,0,1,7.92-1,33,33,0,0,1,11,1.6,21.08,21.08,0,0,1,7.46,4.32,17.54,17.54,0,0,1,4.39,6.34,26,26,0,0,1,1.79,7.63Zm11.77-17a10.64,10.64,0,0,0-5.07,1.11,9.67,9.67,0,0,0-3.42,3,14.73,14.73,0,0,0-2.07,4.53,35.91,35.91,0,0,0-1.05,5.6h23.14a36.55,36.55,0,0,0-.88-5.53,14.47,14.47,0,0,0-1.93-4.54,9.18,9.18,0,0,0-3.41-3.07A11.11,11.11,0,0,0,222.12,21.14Z"/><path class="cls-1" d="M301.74,63.47a32.31,32.31,0,0,1-5.35,1.5,26.54,26.54,0,0,1-4.45.43,11.21,11.21,0,0,1-4.74-1.07,20.89,20.89,0,0,1-4.41-2.75,30.93,30.93,0,0,1-3.92-3.77c-1.21-1.4-2.31-2.78-3.28-4.14s-1.8-2.66-2.5-3.86-1.23-2.17-1.58-2.91a23.24,23.24,0,0,0,7.14-2.34,18.6,18.6,0,0,0,2.62-1.74,11.85,11.85,0,0,0,2.28-2.4,11.84,11.84,0,0,0,2.23-7.18,10.41,10.41,0,0,0-1.14-5.15,9.65,9.65,0,0,0-2.86-3.22,10.6,10.6,0,0,0-3.69-1.66,16,16,0,0,0-3.63-.47,9.61,9.61,0,0,0-2.73.33,4.7,4.7,0,0,0-1.72.86,2.76,2.76,0,0,0-.88,1.25,4.72,4.72,0,0,0-.25,1.5V58a5,5,0,0,0,.21,1.36,3.27,3.27,0,0,0,.8,1.37,4.75,4.75,0,0,0,1.68,1.09,7.68,7.68,0,0,0,2.89.45V63.8H251.33V62.28a9.49,9.49,0,0,0,2.81-.35,4.24,4.24,0,0,0,1.7-.94,3.13,3.13,0,0,0,.84-1.35,5.73,5.73,0,0,0,.23-1.63V25.32a4.48,4.48,0,0,0-.23-1.33,3.07,3.07,0,0,0-.84-1.31,4.68,4.68,0,0,0-1.7-1,8.48,8.48,0,0,0-2.81-.39V19.7h23.13a50.17,50.17,0,0,1,8.7.76,28.91,28.91,0,0,1,7.61,2.4,15.49,15.49,0,0,1,5.39,4.21,9.54,9.54,0,0,1,2,6.17,9.78,9.78,0,0,1-1.27,5,13.32,13.32,0,0,1-3.36,3.8,20.34,20.34,0,0,1-4.78,2.71,40.37,40.37,0,0,1-5.52,1.78,49.49,49.49,0,0,0,3.61,5.68,53.72,53.72,0,0,0,4.14,5,27.41,27.41,0,0,0,4.05,3.57,6.15,6.15,0,0,0,3.3,1.35,11.41,11.41,0,0,0,1.17-.1,7.53,7.53,0,0,0,1.7-.48Z"/><polygon class="cls-2" points="145.31 27.11 133.66 23.51 127.22 21.52 120.92 23.5 109.42 27.11 127.36 0 140.41 19.7 141.53 21.4 145.31 27.11"/></g></g></svg>